Coordinates
version=1
nRows=21
nColumns=22
inDegrees=yes

Units are S.I. units (second, meters, Newtons, ...)
If the header above contains a line with 'inDegrees', this indicates whether rotational values are in degrees (yes) or radians (no).

endheader
time	pelvis_tilt	pelvis_list	pelvis_rotation	pelvis_tx	pelvis_ty	pelvis_tz	hip_flexion_r	hip_adduction_r	hip_rotation_r	knee_angle_r	ankle_angle_r	subtalar_angle_r	hip_flexion_l	hip_adduction_l	hip_rotation_l	knee_angle_l	ankle_angle_l	subtalar_angle_l	lumbar_extension	lumbar_bending	lumbar_rotation
      2.56000000	      9.34481369	     -4.92345288	    -32.37842472	      1.42050855	      0.90296511	      1.06243636	     14.00390489	     -2.69689146	     -2.37756486	    -26.82600245	      4.82058199	     -1.84641867	      9.59144878	      2.67658609	     -0.92571726	    -37.65818616	      8.17616425	     -5.76710907	    -19.63937563	     -0.50982254	     -3.88276672
      2.57000000	      9.44539550	     -4.58927100	    -31.73598367	      1.42741637	      0.90568809	      1.06936203	     12.90923401	     -2.75742939	     -2.58469897	    -25.52557968	      4.00528039	     -1.95836778	      9.38720398	      2.71283733	     -0.69399770	    -38.05718140	      6.87908703	     -4.41090992	    -18.93529559	     -1.03561151	     -3.72096033
      2.58000000	      9.55430477	     -4.26942554	    -31.04937905	      1.43420673	      0.90789570	      1.07611222	     11.85075708	     -2.85124164	     -2.94112988	    -24.56841425	      3.64341578	     -2.55505886	      9.31098031	      2.73961129	     -0.35642101	    -38.67211294	      5.61870618	     -3.09532303	    -18.28524979	     -1.54177399	     -3.55665303
      2.59000000	      9.66417387	     -3.95034020	    -30.34889051	      1.44084312	      0.90954278	      1.08269943	     10.85655113	     -2.98171310	     -3.43494731	    -23.89968222	      3.68470822	     -3.35511225	      9.36033779	      2.76289984	      0.04706315	    -39.47292415	      4.41875976	     -1.66446198	    -17.68859736	     -2.03765859	     -3.39405991
      2.60000000	      9.76943187	     -3.64542889	    -29.67983612	      1.44726429	      0.91062176	      1.08915283	      9.94425493	     -3.12397920	     -4.03331343	    -23.47240232	      4.03752005	     -4.21854066	      9.51625149	      2.76298136	      0.46541947	    -40.42814928	      3.29689153	     -0.12062972	    -17.15976068	     -2.51431862	     -3.17124125
      2.61000000	      9.87735283	     -3.37286964	    -29.03056060	      1.45346982	      0.91117117	      1.09545032	      9.07644729	     -3.25555661	     -4.70716744	    -23.19594336	      4.66319662	     -5.02296365	      9.74988441	      2.73639673	      0.90987818	    -41.51099719	      2.29568016	      1.45433545	    -16.72281470	     -2.94686050	     -2.94603609
      2.62000000	      9.98122687	     -3.14790146	    -28.41396104	      1.45942461	      0.91120986	      1.10161993	      8.25651333	     -3.34707378	     -5.41553590	    -23.03705229	      5.52108936	     -5.72938997	     10.04998875	      2.66185107	      1.35952518	    -42.69317653	      1.43987902	      3.00234239	    -16.38113558	     -3.32164030	     -2.71756046
      2.63000000	     10.07429677	     -2.97031557	    -27.84019513	      1.46512347	      0.91077033	      1.10765340	      7.49484971	     -3.39085169	     -6.13007038	    -22.96795856	      6.54641242	     -6.33030227	     10.40761819	      2.54567251	      1.81832078	    -43.93767954	      0.78013358	      4.43208649	    -16.12395726	     -3.63317388	     -2.49939020
      2.64000000	     10.14983442	     -2.84675067	    -27.32024476	      1.47054601	      0.90989560	      1.11354980	      6.80640320	     -3.36843953	     -6.78424142	    -22.99019725	      7.69747974	     -6.85574698	     10.81164675	      2.38299994	      2.27946004	    -45.20301296	      0.33576171	      5.68444061	    -15.94274648	     -3.87437335	     -2.27075934
      2.65000000	     10.19716580	     -2.78064041	    -26.86275402	      1.47569032	      0.90865054	      1.11932030	      6.20436106	     -3.26965188	     -7.35916424	    -23.10102282	      8.92002741	     -7.32778119	     11.25243597	      2.16639643	      2.73405441	    -46.44187790	      0.12493207	      6.69041436	    -15.82018501	     -4.03901819	     -2.03737020
      2.66000000	     10.21095220	     -2.76750755	    -26.47454074	      1.48056470	      0.90711896	      1.12497071	      5.68980420	     -3.09271329	     -7.82827129	    -23.28184816	     10.17067754	     -7.75875125	     11.71199018	      1.90197682	      3.17961239	    -47.59526337	      0.16559573	      7.39152795	    -15.73550460	     -4.13530519	     -1.79064817
      2.67000000	     10.20063746	     -2.80675029	    -26.15910742	      1.48518437	      0.90541938	      1.13049995	      5.24326058	     -2.83970957	     -8.16552055	    -23.51409593	     11.41565583	     -8.02488359	     12.14514528	      1.59976163	      3.62085513	    -48.59389600	      0.52480912	      7.71430101	    -15.69055330	     -4.16824034	     -1.53614909
      2.68000000	     10.12417698	     -2.89864125	    -25.95614409	      1.48947809	      0.90358945	      1.13597851	      4.91169292	     -2.48161032	     -8.35084999	    -23.78907820	     12.61406245	     -8.63495011	     12.59845946	      1.20775289	      3.97285504	    -49.43290497	      0.92358843	      7.96881371	    -15.63392007	     -4.13587979	     -1.21600589
      2.69000000	     10.04097241	     -3.01973352	    -25.84139369	      1.49352314	      0.90181951	      1.14136244	      4.61281918	     -2.07433842	     -8.39273580	    -24.06249225	     13.73547915	     -9.12561380	     12.96629649	      0.80464000	      4.30036204	    -50.02541813	      1.56019551	      7.88142525	    -15.60609631	     -4.08296110	     -0.88062334
      2.70000000	      9.92221690	     -3.16980144	    -25.82820139	      1.49731506	      0.90015815	      1.14668234	      4.36768424	     -1.61194610	     -8.35087029	    -24.31756739	     14.71860334	     -9.59654278	     13.27143942	      0.35905108	      4.55877601	    -50.37245826	      2.30504826	      7.63081373	    -15.56868396	     -4.00571006	     -0.48673934
      2.71000000	      9.79727829	     -3.31227540	    -25.91287238	      1.50084805	      0.89869462	      1.15190000	      4.15926786	     -1.13914812	     -8.15531136	    -24.55072842	     15.58392492	    -10.13713118	     13.48354499	     -0.06976197	      4.75706487	    -50.45358154	      3.07982574	      7.24030845	    -15.53370358	     -3.94868518	     -0.08537188
      2.72000000	      9.65591008	     -3.44187619	    -26.09294674	      1.50415933	      0.89746876	      1.15702842	      3.98471917	     -0.66995563	     -7.88243217	    -24.74447926	     16.29107977	    -10.61872028	     13.60336581	     -0.48257251	      4.89043300	    -50.27402234	      3.86043928	      6.84810289	    -15.47848547	     -3.91676435	      0.36079110
      2.73000000	      9.50202951	     -3.53558702	    -26.34886692	      1.50726072	      0.89648532	      1.16201570	      3.85253964	     -0.23682078	     -7.53755630	    -24.91078463	     16.85303166	    -11.06949002	     13.64203635	     -0.84565409	      4.97850738	    -49.85868153	      4.60980646	      6.47411868	    -15.39525433	     -3.92599382	      0.81298618
      2.74000000	      9.34055131	     -3.59545216	    -26.66555148	      1.51017012	      0.89574518	      1.16682493	      3.77058948	      0.14466860	     -7.16891204	    -25.08399164	     17.21696563	    -11.29842161	     13.59960559	     -1.15370656	      5.03217410	    -49.23976518	      5.32675905	      6.29854210	    -15.29122054	     -3.97171213	      1.27781049
      2.75000000	      9.15040418	     -3.60224252	    -26.99845207	      1.51293976	      0.89518021	      1.17142942	      3.73711943	      0.47230432	     -6.78209805	    -25.22180185	     17.58594619	    -11.73948316	     13.53767683	     -1.39502565	      5.07250705	    -48.48164414	      5.94743423	      5.95732769	    -15.12839786	     -4.05118090	      1.68467070
      2.76000000	      8.94500916	     -3.57614344	    -27.35315466	      1.51557750	      0.89479744	      1.17584463	      3.74819492	      0.74328787	     -6.44255146	    -25.35906310	     17.78110765	    -11.82929971	     13.43270062	     -1.59001003	      5.08781548	    -47.61032933	      6.51060124	      5.90829886	    -14.92972768	     -4.15459449	      2.08060835
